<svg width="250" height="72" viewBox="0 0 250 72" fill="none" xmlns="http://www.w3.org/2000/svg">
<path d="M21.8032 5.25378C21.8032 6.70458 20.6271 7.88068 19.1763 7.88068C17.7255 7.88068 16.5494 6.70458 16.5494 5.25378C16.5494 3.80299 17.7255 2.62689 19.1763 2.62689C20.6271 2.62689 21.8032 3.80299 21.8032 5.25378Z" fill="#4BB3FD"/>
<path d="M51.4871 2.62689C51.4871 4.07768 50.311 5.25378 48.8602 5.25378C47.4094 5.25378 46.2333 4.07768 46.2333 2.62689C46.2333 1.1761 47.4094 0 48.8602 0C50.311 0 51.4871 1.1761 51.4871 2.62689Z" fill="#4BB3FD"/>
<path d="M71.4515 24.1674C71.4515 25.6182 70.2754 26.7943 68.8246 26.7943C67.3738 26.7943 66.1977 25.6182 66.1977 24.1674C66.1977 22.7166 67.3738 21.5405 68.8246 21.5405C70.2754 21.5405 71.4515 22.7166 71.4515 24.1674Z" fill="#4BB3FD"/>
<path d="M67.5111 53.5886C67.5111 55.0394 66.335 56.2155 64.8842 56.2155C63.4334 56.2155 62.2573 55.0394 62.2573 53.5886C62.2573 52.1378 63.4334 50.9617 64.8842 50.9617C66.335 50.9617 67.5111 52.1378 67.5111 53.5886Z" fill="#4BB3FD"/>
<path d="M42.0303 68.5619C42.0303 70.0127 40.8542 71.1888 39.4034 71.1888C37.9526 71.1888 36.7765 70.0127 36.7765 68.5619C36.7765 67.1111 37.9526 65.935 39.4034 65.935C40.8542 65.935 42.0303 67.1111 42.0303 68.5619Z" fill="#4BB3FD"/>
<path d="M14.1852 57.5289C14.1852 58.9797 13.0091 60.1558 11.5583 60.1558C10.1075 60.1558 8.93143 58.9797 8.93143 57.5289C8.93143 56.0781 10.1075 54.9021 11.5583 54.9021C13.0091 54.9021 14.1852 56.0781 14.1852 57.5289Z" fill="#4BB3FD"/>
<path d="M5.25378 29.4212C5.25378 30.872 4.07768 32.0481 2.62689 32.0481C1.1761 32.0481 0 30.872 0 29.4212C0 27.9704 1.1761 26.7943 2.62689 26.7943C4.07768 26.7943 5.25378 27.9704 5.25378 29.4212Z" fill="#4BB3FD"/>
<path d="M22.854 36.5138C22.854 37.9646 21.6779 39.1407 20.2271 39.1407C18.7763 39.1407 17.6002 37.9646 17.6002 36.5138C17.6002 35.063 18.7763 33.8869 20.2271 33.8869C21.6779 33.8869 22.854 35.063 22.854 36.5138Z" fill="#4BB3FD"/>
<path d="M32.5735 22.3286C32.5735 23.7794 31.3974 24.9555 29.9466 24.9555C28.4958 24.9555 27.3197 23.7794 27.3197 22.3286C27.3197 20.8778 28.4958 19.7017 29.9466 19.7017C31.3974 19.7017 32.5735 20.8778 32.5735 22.3286Z" fill="#4BB3FD"/>
<path d="M36.7765 39.1407C36.7765 40.5915 35.6004 41.7676 34.1496 41.7676C32.6988 41.7676 31.5227 40.5915 31.5227 39.1407C31.5227 37.6899 32.6988 36.5138 34.1496 36.5138C35.6004 36.5138 36.7765 37.6899 36.7765 39.1407Z" fill="#4BB3FD"/>
<path d="M46.2333 27.3197C46.2333 28.7705 45.0572 29.9466 43.6064 29.9466C42.1556 29.9466 40.9795 28.7705 40.9795 27.3197C40.9795 25.8689 42.1556 24.6928 43.6064 24.6928C45.0572 24.6928 46.2333 25.8689 46.2333 27.3197Z" fill="#4BB3FD"/>
<path d="M60.1558 25.2182C60.1558 26.669 58.9797 27.8451 57.5289 27.8451C56.0781 27.8451 54.902 26.669 54.902 25.2182C54.902 23.7674 56.0781 22.5913 57.5289 22.5913C58.9797 22.5913 60.1558 23.7674 60.1558 25.2182Z" fill="#4BB3FD"/>
<path d="M54.902 13.9225C54.902 15.3733 53.7259 16.5494 52.2752 16.5494C50.8244 16.5494 49.6483 15.3733 49.6483 13.9225C49.6483 12.4717 50.8244 11.2956 52.2752 11.2956C53.7259 11.2956 54.902 12.4717 54.902 13.9225Z" fill="#4BB3FD"/>
<path d="M37.8272 9.7195C37.8272 11.1703 36.6511 12.3464 35.2004 12.3464C33.7496 12.3464 32.5735 11.1703 32.5735 9.7195C32.5735 8.26871 33.7496 7.09261 35.2004 7.09261C36.6511 7.09261 37.8272 8.26871 37.8272 9.7195Z" fill="#4BB3FD"/>
<path d="M19.1763 25.2182C19.1763 26.669 18.0002 27.8451 16.5494 27.8451C15.0986 27.8451 13.9225 26.669 13.9225 25.2182C13.9225 23.7674 15.0986 22.5913 16.5494 22.5913C18.0002 22.5913 19.1763 23.7674 19.1763 25.2182Z" fill="#4BB3FD"/>
<path d="M29.4212 55.6901C29.4212 57.1409 28.2451 58.317 26.7943 58.317C25.3435 58.317 24.1674 57.1409 24.1674 55.6901C24.1674 54.2393 25.3435 53.0632 26.7943 53.0632C28.2451 53.0632 29.4212 54.2393 29.4212 55.6901Z" fill="#4BB3FD"/>
<path d="M59.3678 40.4541C59.3678 41.9049 58.1917 43.081 56.7409 43.081C55.2901 43.081 54.114 41.9049 54.114 40.4541C54.114 39.0034 55.2901 37.8273 56.7409 37.8273C58.1917 37.8273 59.3678 39.0034 59.3678 40.4541Z" fill="#4BB3FD"/>
<path d="M48.0721 52.0125C48.0721 53.4633 46.896 54.6394 45.4452 54.6394C43.9944 54.6394 42.8183 53.4633 42.8183 52.0125C42.8183 50.5617 43.9944 49.3856 45.4452 49.3856C46.896 49.3856 48.0721 50.5617 48.0721 52.0125Z" fill="#4BB3FD"/>
<path d="M45.4015 5.10448C44.7714 4.3177 44.3945 3.31929 44.3945 2.23284C44.3945 2.16663 44.3959 2.10074 44.3986 2.0352L23.434 3.75098C23.5692 4.18411 23.642 4.64476 23.642 5.12243C23.642 5.7885 23.5004 6.42148 23.2455 6.9929L30.4727 9.50683C30.4807 9.04376 30.5572 8.59738 30.6925 8.17738L23.8552 5.79905L44.4673 4.11213L39.0427 7.27526C39.2664 7.6588 39.4362 8.07766 39.5417 8.52144L45.4015 5.10448Z" fill="#3E6680"/>
<path d="M49.3108 6.81899L50.2503 9.60093C50.6491 9.42043 51.0783 9.29519 51.5281 9.23498L50.6161 6.5346C50.2058 6.68965 49.7675 6.78767 49.3108 6.81899Z" fill="#3E6680"/>
<path d="M50.7956 6.46239L53.7401 9.47884C55.0295 9.95632 56.0463 10.9956 56.4934 12.2994L64.6955 20.7019L56.3328 15.6873C56.1479 16.0952 55.9051 16.4713 55.615 16.8052L64.5058 22.1365C64.9624 21.1314 65.7702 20.3198 66.7725 19.8582L52.4848 5.22135C52.0279 5.7549 51.4509 6.18255 50.7956 6.46239Z" fill="#3E6680"/>
<path d="M67.3495 28.4336C67.7746 28.5633 68.2257 28.6331 68.6932 28.6331C68.9424 28.6331 69.187 28.6133 69.4254 28.5751L66.5573 49.2278C66.0033 48.9912 65.3934 48.8602 64.7529 48.8602C64.6721 48.8602 64.5917 48.8623 64.512 48.8664L67.3495 28.4336Z" fill="#3E6680"/>
<path d="M65.6387 27.4716C65.9698 27.7662 66.3438 28.0137 66.7502 28.2035L59.9512 37.1658C59.6466 36.8436 59.2959 36.5653 58.9097 36.3417L65.6387 27.4716Z" fill="#3E6680"/>
<path d="M64.0967 23.9666C64.0963 23.9897 64.0962 24.0129 64.0962 24.0361C64.0962 24.4732 64.1572 24.8961 64.2712 25.2966L61.9912 25.2672C61.9935 25.2074 61.9946 25.1472 61.9946 25.0868C61.9946 24.69 61.9444 24.3049 61.8498 23.9376L64.0967 23.9666Z" fill="#3E6680"/>
<path d="M56.2029 20.6465L54.7087 17.6068C54.3435 17.8527 53.941 18.0477 53.5116 18.1813L54.9828 21.1743C55.3572 20.9427 55.7673 20.7634 56.2029 20.6465Z" fill="#3E6680"/>
<path d="M52.8019 25.2016L47.9443 26.1072C48.0278 26.4539 48.0721 26.816 48.0721 27.1883C48.0721 27.2712 48.0699 27.3535 48.0656 27.4353L53.0253 26.5107C52.8907 26.097 52.8131 25.6575 52.8019 25.2016Z" fill="#3E6680"/>
<path d="M56.4388 29.5837L56.2244 35.7416C56.3514 35.7311 56.4798 35.7257 56.6095 35.7257C56.9319 35.7257 57.2466 35.7589 57.5502 35.8221L57.7645 29.6694C57.6434 29.679 57.5211 29.6839 57.3976 29.6839C57.0688 29.6839 56.748 29.6493 56.4388 29.5837Z" fill="#3E6680"/>
<path d="M53.9004 36.6084L47.2771 29.7733C47.0259 30.1419 46.7226 30.4721 46.3777 30.7533L52.9518 37.5377C53.2215 37.1842 53.5412 36.8709 53.9004 36.6084Z" fill="#3E6680"/>
<path d="M52.0987 39.4318L38.6132 39.1488C38.5995 39.6102 38.5177 40.0545 38.3777 40.4721L52.0329 40.7587C52.0194 40.6152 52.0125 40.4698 52.0125 40.3228C52.0125 40.018 52.0421 39.7201 52.0987 39.4318Z" fill="#3E6680"/>
<path d="M53.0091 43.1814L48.1743 48.2822C48.5226 48.5594 48.8297 48.886 49.0851 49.2515L53.9762 44.0913C53.6115 43.8361 53.2856 43.5292 53.0091 43.1814Z" fill="#3E6680"/>
<path d="M58.7179 44.4089L61.8759 49.8715C62.2202 49.5949 62.6051 49.3669 63.0203 49.1979L59.8018 43.6307C59.4817 43.9397 59.1168 44.2026 58.7179 44.4089Z" fill="#3E6680"/>
<path d="M60.2764 52.4067L49.9096 51.7682C49.9105 51.8057 49.9109 51.8434 49.9109 51.8811C49.9109 52.2991 49.8552 52.704 49.7507 53.0888L60.1638 53.7302C60.1585 53.6399 60.1558 53.5489 60.1558 53.4572C60.1558 53.0958 60.1975 52.7441 60.2764 52.4067Z" fill="#3E6680"/>
<path d="M60.4185 54.9927L42.6591 65.3223C43.1269 65.8318 43.4813 66.4472 43.6821 67.1284L61.5377 56.7429C61.0417 56.2575 60.6551 55.6606 60.4185 54.9927Z" fill="#3E6680"/>
<path d="M41.6358 64.4869C41.2588 64.2605 40.8466 64.0865 40.4094 63.9752L43.3581 56.0426C43.7549 56.2294 44.1826 56.3611 44.6316 56.4279L41.6358 64.4869Z" fill="#3E6680"/>
<path d="M40.7261 52.1762C40.7549 52.6304 40.8496 53.0667 41.0009 53.4756L31.2474 55.3763C31.2558 55.2631 31.26 55.1487 31.26 55.0334C31.26 54.693 31.223 54.3612 31.1528 54.0418L40.7261 52.1762Z" fill="#3E6680"/>
<path d="M42.8829 47.9787C42.5042 48.2151 42.1624 48.5051 41.8681 48.8381L36.3333 42.9818C36.72 42.756 37.0707 42.4753 37.3748 42.1505L42.8829 47.9787Z" fill="#3E6680"/>
<path d="M31.8442 43.0609C32.2315 43.2691 32.652 43.4234 33.0958 43.5138L29.5797 51.48C29.2357 51.1973 28.8499 50.9635 28.433 50.7894L31.8442 43.0609Z" fill="#3E6680"/>
<path d="M29.6231 37.6576C29.4953 38.0738 29.4249 38.5151 29.4213 38.9723L24.1885 38.4779C24.3939 38.0775 24.5423 37.643 24.6229 37.1852L29.6231 37.6576Z" fill="#3E6680"/>
<path d="M33.2084 34.4834C32.7595 34.5632 32.3331 34.7081 31.9394 34.9081L30.355 27.0256C30.8066 26.9728 31.2382 26.8545 31.6401 26.6805L33.2084 34.4834Z" fill="#3E6680"/>
<path d="M37.4671 35.9698C37.1735 35.6369 36.8324 35.3468 36.4545 35.1102L40.2245 30.439C40.538 30.7525 40.8965 31.0209 41.2896 31.2337L37.4671 35.9698Z" fill="#3E6680"/>
<path d="M39.4087 25.0421C39.2035 25.4301 39.0522 25.851 38.9648 26.2949L34.03 24.2981C34.2062 23.8947 34.3262 23.4611 34.38 23.0073L39.4087 25.0421Z" fill="#3E6680"/>
<path d="M42.2585 22.754C41.8234 22.8731 41.4141 23.0545 41.0407 23.288L36.3608 14.0012C36.7931 13.8749 37.1991 13.6867 37.5684 13.447L42.2585 22.754Z" fill="#3E6680"/>
<path d="M46.7347 23.9468C46.4215 23.6318 46.063 23.362 45.6698 23.148L49.3468 17.4397C49.6975 17.709 50.0881 17.9288 50.5082 18.0888L46.7347 23.9468Z" fill="#3E6680"/>
<path d="M47.7452 12.4508C47.6182 12.8682 47.549 13.3107 47.5468 13.7691L39.1382 11.7289C39.3438 11.339 39.4949 10.9161 39.5816 10.4701L47.7452 12.4508Z" fill="#3E6680"/>
<path d="M32.8887 13.6363C33.2753 13.845 33.6953 13.9999 34.1385 14.091L32.2268 18.5454C31.8527 18.3145 31.443 18.1356 31.0078 18.0191L32.8887 13.6363Z" fill="#3E6680"/>
<path d="M28.4152 18.0799L22.1048 8.55326C21.7749 8.84776 21.4021 9.09536 20.9971 9.2856L27.2131 18.6697C27.579 18.418 27.9832 18.2179 28.4152 18.0799Z" fill="#3E6680"/>
<path d="M25.229 22.7781L20.789 23.6588C20.9241 24.0725 21.0021 24.512 21.0136 24.968L25.5103 24.076C25.3569 23.6678 25.26 23.232 25.229 22.7781Z" fill="#3E6680"/>
<path d="M26.739 25.876L22.5022 32.4648C22.885 32.7004 23.2306 32.9906 23.5282 33.3244L27.8433 26.6138C27.4392 26.4216 27.0676 26.1722 26.739 25.876Z" fill="#3E6680"/>
<path d="M19.5814 31.8138L18.8238 29.0049C18.4457 29.2376 18.0313 29.417 17.5911 29.5329L18.2971 32.1506C18.699 31.9795 19.1304 31.864 19.5814 31.8138Z" fill="#3E6680"/>
<path d="M16.0611 34.1772L6.93719 30.4795C6.82086 30.9149 6.64222 31.3248 6.4114 31.6992L15.599 35.4227C15.6929 34.9807 15.8503 34.5622 16.0611 34.1772Z" fill="#3E6680"/>
<path d="M18.3919 40.6534L13.1702 53.1426C13.5891 53.3143 13.977 53.5462 14.3232 53.8274L19.7018 40.9629C19.2426 40.9239 18.8027 40.8174 18.3919 40.6534Z" fill="#3E6680"/>
<path d="M21.1047 40.8684L24.5403 50.9547C24.929 50.7519 25.3504 50.6032 25.7944 50.5182L22.3453 40.3924C21.9624 40.6077 21.5455 40.7697 21.1047 40.8684Z" fill="#3E6680"/>
<path d="M22.1629 55.9773L15.9422 56.5294C15.9959 56.8106 16.024 57.1008 16.024 57.3976C16.024 57.5527 16.0164 57.706 16.0013 57.8572L22.6444 57.2676C22.4229 56.8701 22.2587 56.4362 22.1629 55.9773Z" fill="#3E6680"/>
<path d="M28.9627 59.0147L35.6218 65.6357C35.8923 65.2829 36.2129 64.9704 36.5729 64.7089L30.0105 58.1841C29.7045 58.5091 29.3516 58.7896 28.9627 59.0147Z" fill="#3E6680"/>
<path d="M35.4681 65.8485C35.0822 66.4159 34.8199 67.0742 34.72 67.7846L15.0205 60.2648C15.4521 59.7246 15.7645 59.0849 15.9176 58.3856L35.4681 65.8485Z" fill="#3E6680"/>
<path d="M11.3195 52.8018C10.5943 52.8184 9.91059 53.003 9.30577 53.3181L3.13762 33.8424C3.84955 33.7429 4.50923 33.4804 5.07772 33.0937L11.3195 52.8018Z" fill="#3E6680"/>
<path d="M6.2525 26.64C5.84533 26.0638 5.30894 25.5853 4.68551 25.2469L15.8328 8.41107C16.3287 8.8955 16.9338 9.26869 17.6076 9.4903L6.2525 26.64Z" fill="#3E6680"/>
<path d="M7.09217 29.226C7.0859 28.7651 7.01181 28.3206 6.87941 27.902L11.9896 26.3247C12.1115 26.7616 12.2963 27.1723 12.5337 27.5464L7.09217 29.226Z" fill="#3E6680"/>
<path d="M18.5363 21.0058C18.1363 20.7977 17.7018 20.6468 17.2437 20.5637L18.2566 9.65215C18.5128 9.69642 18.7762 9.71949 19.045 9.71949C19.2283 9.71949 19.4092 9.70875 19.5869 9.68788L18.5363 21.0058Z" fill="#3E6680"/>
<path d="M85.9687 32.5735V13.2059H79.4792V9.03651H97.2328V13.2059H90.7434V32.5735H85.9687Z" fill="#3E6680"/>
<path d="M85.9687 32.5735V13.2059H79.4792V9.03651H97.2328V13.2059H90.7434V32.5735H85.9687Z" fill="#00487C"/>
<path d="M100.675 32.5735V9.03651H105.449V13.7439H114.326L118.025 17.4426V32.5735H113.25V17.7788H105.449V32.5735H100.675Z" fill="#3E6680"/>
<path d="M100.675 32.5735V9.03651H105.449V13.7439H114.326L118.025 17.4426V32.5735H113.25V17.7788H105.449V32.5735H100.675Z" fill="#00487C"/>
<path d="M122.299 29.0093V17.3081L125.863 13.7439H139.111V24.3019H127.074V28.5386H138.439V32.5735H125.863L122.299 29.0093ZM127.074 21.6792L134.942 21.343V17.5098H127.074V21.6792Z" fill="#3E6680"/>
<path d="M122.299 29.0093V17.3081L125.863 13.7439H139.111V24.3019H127.074V28.5386H138.439V32.5735H125.863L122.299 29.0093ZM127.074 21.6792L134.942 21.343V17.5098H127.074V21.6792Z" fill="#00487C"/>
<path d="M153.052 28.9421V12.6679L156.683 9.03651H168.721V13.374H157.961V28.2359H169.057V32.5735H156.683L153.052 28.9421Z" fill="#3E6680"/>
<path d="M153.052 28.9421V12.6679L156.683 9.03651H168.721V13.374H157.961V28.2359H169.057V32.5735H156.683L153.052 28.9421Z" fill="#00487C"/>
<path d="M172.376 37.2809V33.2459H180.883L181.858 29.8835H176.041L171.3 13.7439H176.142L179.572 25.9831H182.766L186.061 13.7439H190.869L184.245 37.2809H172.376Z" fill="#3E6680"/>
<path d="M172.376 37.2809V33.2459H180.883L181.858 29.8835H176.041L171.3 13.7439H176.142L179.572 25.9831H182.766L186.061 13.7439H190.869L184.245 37.2809H172.376Z" fill="#00487C"/>
<path d="M193.916 32.5735V9.03651H198.691V13.7439H207.668L211.502 17.5771V28.7403L207.668 32.5735H193.916ZM198.691 28.5386H206.727V17.7788H198.691V28.5386Z" fill="#3E6680"/>
<path d="M193.916 32.5735V9.03651H198.691V13.7439H207.668L211.502 17.5771V28.7403L207.668 32.5735H193.916ZM198.691 28.5386H206.727V17.7788H198.691V28.5386Z" fill="#00487C"/>
<path d="M215.54 29.0093V17.3081L219.105 13.7439H232.353V24.3019H220.315V28.5386H231.68V32.5735H219.105L215.54 29.0093ZM220.315 21.6792L228.183 21.343V17.5098H220.315V21.6792Z" fill="#3E6680"/>
<path d="M215.54 29.0093V17.3081L219.105 13.7439H232.353V24.3019H220.315V28.5386H231.68V32.5735H219.105L215.54 29.0093ZM220.315 21.6792L228.183 21.343V17.5098H220.315V21.6792Z" fill="#00487C"/>
<path d="M236.618 32.5735V17.4426L240.316 13.7439H250V18.0478H241.392V32.5735H236.618Z" fill="#3E6680"/>
<path d="M236.618 32.5735V17.4426L240.316 13.7439H250V18.0478H241.392V32.5735H236.618Z" fill="#00487C"/>
<path d="M80.488 61.5155V45.2414L84.1194 41.61H96.1569V45.9475H85.3971V60.8094H96.4931V65.1469H84.1194L80.488 61.5155Z" fill="#3E6680"/>
<path d="M80.488 61.5155V45.2414L84.1194 41.61H96.1569V45.9475H85.3971V60.8094H96.4931V65.1469H84.1194L80.488 61.5155Z" fill="#00487C"/>
<path d="M100.182 65.1469V41.61H104.957V46.3174H113.833L117.532 50.016V65.1469H112.758V50.3523H104.957V65.1469H100.182Z" fill="#3E6680"/>
<path d="M100.182 65.1469V41.61H104.957V46.3174H113.833L117.532 50.016V65.1469H112.758V50.3523H104.957V65.1469H100.182Z" fill="#00487C"/>
<path d="M121.705 61.4483V54.3872L133.945 54.0509V50.3523H122.378V46.3174H135.021L138.719 50.016V65.1469H125.404L121.705 61.4483ZM126.48 57.3461V61.2465H133.945V56.6736L126.48 57.3461Z" fill="#3E6680"/>
<path d="M121.705 61.4483V54.3872L133.945 54.0509V50.3523H122.378V46.3174H135.021L138.719 50.016V65.1469H125.404L121.705 61.4483ZM126.48 57.3461V61.2465H133.945V56.6736L126.48 57.3461Z" fill="#00487C"/>
<path d="M143.212 46.3174H166.749L170.649 50.2178V65.1469H165.942V50.285H159.251V65.1469H154.61V50.285H147.919V65.1469H143.212V46.3174Z" fill="#3E6680"/>
<path d="M143.212 46.3174H166.749L170.649 50.2178V65.1469H165.942V50.285H159.251V65.1469H154.61V50.285H147.919V65.1469H143.212V46.3174Z" fill="#00487C"/>
<path d="M175.152 69.8543V46.3174H188.905L192.738 50.1505V61.3138L188.905 65.1469H179.927V69.8543H175.152ZM187.963 50.3523H179.927V61.112H187.963V50.3523Z" fill="#3E6680"/>
<path d="M175.152 69.8543V46.3174H188.905L192.738 50.1505V61.3138L188.905 65.1469H179.927V69.8543H175.152ZM187.963 50.3523H179.927V61.112H187.963V50.3523Z" fill="#00487C"/>
<path d="M196.777 65.1469V61.2465H208.881V57.1107H196.777V49.8815L200.341 46.3174H213.656V50.2178H201.551V54.1518H213.656V61.6836L210.193 65.1469H196.777Z" fill="#3E6680"/>
<path d="M196.777 65.1469V61.2465H208.881V57.1107H196.777V49.8815L200.341 46.3174H213.656V50.2178H201.551V54.1518H213.656V61.6836L210.193 65.1469H196.777Z" fill="#00487C"/>
</svg>
