<svg width="100%" height="100%" id="svg" viewBox="0 0 1440 590" xmlns="http://www.w3.org/2000/svg" class="transition duration-300 ease-in-out delay-150"><defs><linearGradient id="gradient" x1="81%" y1="89%" x2="19%" y2="11%"><stop offset="5%" stop-color="#00487c"></stop><stop offset="95%" stop-color="#4bb3fd"></stop></linearGradient></defs><path d="M 0,600 L 0,150 C 88.34102564102565,140.0679487179487 176.6820512820513,130.13589743589742 266,165 C 355.3179487179487,199.86410256410258 445.61282051282046,279.524358974359 518,299 C 590.3871794871795,318.475641025641 644.8666666666668,277.7666666666666 712,288 C 779.1333333333332,298.2333333333334 858.9205128205128,359.40897435897443 952,390 C 1045.0794871794872,420.59102564102557 1151.451282051282,420.59743589743584 1235,438 C 1318.548717948718,455.40256410256416 1379.274358974359,490.2012820512821 1440,525 L 1440,600 L 0,600 Z" stroke="none" stroke-width="0" fill="url(#gradient)" fill-opacity="0.53" class="transition-all duration-300 ease-in-out delay-150 path-0"></path><defs><linearGradient id="gradient" x1="81%" y1="89%" x2="19%" y2="11%"><stop offset="5%" stop-color="#00487c"></stop><stop offset="95%" stop-color="#4bb3fd"></stop></linearGradient></defs><path d="M 0,600 L 0,350 C 67.00512820512819,310.7858974358974 134.01025641025637,271.57179487179485 214,281 C 293.9897435897436,290.42820512820515 386.9641025641025,348.4987179487179 479,409 C 571.0358974358975,469.5012820512821 662.1333333333333,532.4333333333333 734,560 C 805.8666666666667,587.5666666666667 858.502564102564,579.7679487179488 934,595 C 1009.497435897436,610.2320512820512 1107.8564102564103,648.4948717948718 1196,674 C 1284.1435897435897,699.5051282051282 1362.0717948717947,712.2525641025641 1440,725 L 1440,600 L 0,600 Z" stroke="none" stroke-width="0" fill="url(#gradient)" fill-opacity="1" class="transition-all duration-300 ease-in-out delay-150 path-1"></path></svg>