<svg viewBox="0 0 1440 590" xmlns="http://www.w3.org/2000/svg" class="transition duration-300 ease-in-out delay-150"><defs><linearGradient id="a" x1="81%" y1="89%" x2="19%" y2="11%"><stop offset="5%" stop-color="#00487c"/><stop offset="95%" stop-color="#4bb3fd"/></linearGradient></defs><path d="M0 600V150c88.341-9.932 176.682-19.864 266 15 89.318 34.864 179.613 114.524 252 134s126.867-21.233 194-11 146.92 71.409 240 102c93.08 30.591 199.451 30.597 283 48s144.274 52.201 205 87v75H0Z" fill="url(#a)" fill-opacity=".53" class="transition-all duration-300 ease-in-out delay-150 path-0"/><path d="M0 600V350c67.005-39.214 134.01-78.428 214-69 79.99 9.428 172.964 67.499 265 128 92.036 60.501 183.133 123.433 255 151 71.867 27.567 124.503 19.768 200 35s173.856 53.495 262 79c88.144 25.505 166.072 38.253 244 51V600H0Z" fill="url(#a)" class="transition-all duration-300 ease-in-out delay-150 path-1"/></svg>