<svg width="100" height="29" viewBox="0 0 100 29" fill="none" xmlns="http://www.w3.org/2000/svg">
<path d="M8.72128 2.10151C8.72128 2.68183 8.25084 3.15227 7.67052 3.15227C7.09021 3.15227 6.61977 2.68183 6.61977 2.10151C6.61977 1.5212 7.09021 1.05076 7.67052 1.05076C8.25084 1.05076 8.72128 1.5212 8.72128 2.10151Z" fill="white"/>
<path d="M20.5948 1.05076C20.5948 1.63107 20.1244 2.10151 19.5441 2.10151C18.9638 2.10151 18.4933 1.63107 18.4933 1.05076C18.4933 0.47044 18.9638 0 19.5441 0C20.1244 0 20.5948 0.47044 20.5948 1.05076Z" fill="white"/>
<path d="M28.5806 9.66696C28.5806 10.2473 28.1101 10.7177 27.5298 10.7177C26.9495 10.7177 26.4791 10.2473 26.4791 9.66696C26.4791 9.08665 26.9495 8.61621 27.5298 8.61621C28.1101 8.61621 28.5806 9.08665 28.5806 9.66696Z" fill="white"/>
<path d="M27.0045 21.4354C27.0045 22.0158 26.534 22.4862 25.9537 22.4862C25.3734 22.4862 24.9029 22.0158 24.9029 21.4354C24.9029 20.8551 25.3734 20.3847 25.9537 20.3847C26.534 20.3847 27.0045 20.8551 27.0045 21.4354Z" fill="white"/>
<path d="M16.8121 27.4248C16.8121 28.0051 16.3417 28.4755 15.7614 28.4755C15.181 28.4755 14.7106 28.0051 14.7106 27.4248C14.7106 26.8444 15.181 26.374 15.7614 26.374C16.3417 26.374 16.8121 26.8444 16.8121 27.4248Z" fill="white"/>
<path d="M5.67409 23.0116C5.67409 23.5919 5.20365 24.0623 4.62333 24.0623C4.04301 24.0623 3.57257 23.5919 3.57257 23.0116C3.57257 22.4313 4.04301 21.9608 4.62333 21.9608C5.20365 21.9608 5.67409 22.4313 5.67409 23.0116Z" fill="white"/>
<path d="M2.10151 11.7685C2.10151 12.3488 1.63107 12.8192 1.05076 12.8192C0.47044 12.8192 0 12.3488 0 11.7685C0 11.1882 0.47044 10.7177 1.05076 10.7177C1.63107 10.7177 2.10151 11.1882 2.10151 11.7685Z" fill="white"/>
<path d="M9.14158 14.6055C9.14158 15.1858 8.67115 15.6563 8.09083 15.6563C7.51051 15.6563 7.04007 15.1858 7.04007 14.6055C7.04007 14.0252 7.51051 13.5548 8.09083 13.5548C8.67115 13.5548 9.14158 14.0252 9.14158 14.6055Z" fill="white"/>
<path d="M13.0294 8.93143C13.0294 9.51175 12.5589 9.98219 11.9786 9.98219C11.3983 9.98219 10.9279 9.51175 10.9279 8.93143C10.9279 8.35112 11.3983 7.88068 11.9786 7.88068C12.5589 7.88068 13.0294 8.35112 13.0294 8.93143Z" fill="white"/>
<path d="M14.7106 15.6563C14.7106 16.2366 14.2402 16.707 13.6598 16.707C13.0795 16.707 12.6091 16.2366 12.6091 15.6563C12.6091 15.076 13.0795 14.6055 13.6598 14.6055C14.2402 14.6055 14.7106 15.076 14.7106 15.6563Z" fill="white"/>
<path d="M18.4933 10.9279C18.4933 11.5082 18.0229 11.9786 17.4426 11.9786C16.8622 11.9786 16.3918 11.5082 16.3918 10.9279C16.3918 10.3476 16.8622 9.87712 17.4426 9.87712C18.0229 9.87712 18.4933 10.3476 18.4933 10.9279Z" fill="white"/>
<path d="M24.0623 10.0873C24.0623 10.6676 23.5919 11.138 23.0116 11.138C22.4313 11.138 21.9608 10.6676 21.9608 10.0873C21.9608 9.50695 22.4313 9.03651 23.0116 9.03651C23.5919 9.03651 24.0623 9.50695 24.0623 10.0873Z" fill="white"/>
<path d="M21.9608 5.56901C21.9608 6.14933 21.4904 6.61977 20.9101 6.61977C20.3297 6.61977 19.8593 6.14933 19.8593 5.56901C19.8593 4.98869 20.3297 4.51825 20.9101 4.51825C21.4904 4.51825 21.9608 4.98869 21.9608 5.56901Z" fill="white"/>
<path d="M15.1309 3.8878C15.1309 4.46812 14.6605 4.93856 14.0801 4.93856C13.4998 4.93856 13.0294 4.46812 13.0294 3.8878C13.0294 3.30748 13.4998 2.83704 14.0801 2.83704C14.6605 2.83704 15.1309 3.30748 15.1309 3.8878Z" fill="white"/>
<path d="M7.67052 10.0873C7.67052 10.6676 7.20009 11.138 6.61977 11.138C6.03945 11.138 5.56901 10.6676 5.56901 10.0873C5.56901 9.50695 6.03945 9.03651 6.61977 9.03651C7.20009 9.03651 7.67052 9.50695 7.67052 10.0873Z" fill="white"/>
<path d="M11.7685 22.276C11.7685 22.8564 11.298 23.3268 10.7177 23.3268C10.1374 23.3268 9.66696 22.8564 9.66696 22.276C9.66696 21.6957 10.1374 21.2253 10.7177 21.2253C11.298 21.2253 11.7685 21.6957 11.7685 22.276Z" fill="white"/>
<path d="M23.7471 16.1817C23.7471 16.762 23.2767 17.2324 22.6963 17.2324C22.116 17.2324 21.6456 16.762 21.6456 16.1817C21.6456 15.6013 22.116 15.1309 22.6963 15.1309C23.2767 15.1309 23.7471 15.6013 23.7471 16.1817Z" fill="white"/>
<path d="M19.2288 20.805C19.2288 21.3853 18.7584 21.8557 18.1781 21.8557C17.5978 21.8557 17.1273 21.3853 17.1273 20.805C17.1273 20.2247 17.5978 19.7542 18.1781 19.7542C18.7584 19.7542 19.2288 20.2247 19.2288 20.805Z" fill="white"/>
<path d="M18.1606 2.04179C17.9085 1.72708 17.7578 1.32771 17.7578 0.893138C17.7578 0.866651 17.7583 0.840294 17.7595 0.81408L9.37359 1.50039C9.42767 1.67364 9.45681 1.8579 9.45681 2.04897C9.45681 2.3154 9.40015 2.56859 9.29822 2.79716L12.1891 3.80273C12.1923 3.6175 12.2229 3.43895 12.277 3.27095L9.54208 2.31962L17.7869 1.64485L15.6171 2.9101C15.7066 3.06352 15.7745 3.23106 15.8167 3.40857L18.1606 2.04179Z" fill="white"/>
<path d="M19.7243 2.7276L20.1001 3.84037C20.2597 3.76817 20.4313 3.71807 20.6112 3.69399L20.2465 2.61384C20.0823 2.67586 19.907 2.71507 19.7243 2.7276Z" fill="white"/>
<path d="M20.3183 2.58496L21.4961 3.79154C22.0118 3.98253 22.4185 4.39823 22.5974 4.91976L25.8782 8.28078L22.5331 6.27492C22.4592 6.43809 22.3621 6.58853 22.246 6.72208L25.8023 8.85459C25.985 8.45258 26.3081 8.12792 26.709 7.9433L20.9939 2.08854C20.8111 2.30196 20.5803 2.47302 20.3183 2.58496Z" fill="white"/>
<path d="M26.9398 11.3734C27.1098 11.4253 27.2903 11.4532 27.4773 11.4532C27.577 11.4532 27.6748 11.4453 27.7702 11.43L26.6229 19.6911C26.4013 19.5965 26.1574 19.5441 25.9012 19.5441C25.8688 19.5441 25.8367 19.5449 25.8048 19.5466L26.9398 11.3734Z" fill="white"/>
<path d="M26.2555 10.9886C26.3879 11.1065 26.5375 11.2055 26.7001 11.2814L23.9805 14.8663C23.8586 14.7374 23.7184 14.6261 23.5639 14.5367L26.2555 10.9886Z" fill="white"/>
<path d="M25.6387 9.58663C25.6385 9.59588 25.6385 9.60514 25.6385 9.61442C25.6385 9.78927 25.6629 9.95843 25.7085 10.1187L24.7965 10.1069C24.7974 10.083 24.7979 10.0589 24.7979 10.0347C24.7979 9.87599 24.7777 9.72196 24.7399 9.57504L25.6387 9.58663Z" fill="white"/>
<path d="M22.4812 8.25861L21.8835 7.04271C21.7374 7.1411 21.5764 7.21907 21.4046 7.27253L21.9931 8.46972C22.1429 8.3771 22.3069 8.30537 22.4812 8.25861Z" fill="white"/>
<path d="M21.1208 10.0806L19.1777 10.4429C19.2111 10.5816 19.2288 10.7264 19.2288 10.8753C19.2288 10.9085 19.228 10.9414 19.2262 10.9741L21.2101 10.6043C21.1563 10.4388 21.1252 10.263 21.1208 10.0806Z" fill="white"/>
<path d="M22.5755 11.8335L22.4898 14.2967C22.5406 14.2924 22.5919 14.2903 22.6438 14.2903C22.7728 14.2903 22.8986 14.3036 23.0201 14.3288L23.1058 11.8678C23.0574 11.8716 23.0084 11.8735 22.959 11.8735C22.8275 11.8735 22.6992 11.8597 22.5755 11.8335Z" fill="white"/>
<path d="M21.5602 14.6434L18.9108 11.9093C18.8104 12.0568 18.689 12.1889 18.5511 12.3013L21.1807 15.0151C21.2886 14.8737 21.4165 14.7483 21.5602 14.6434Z" fill="white"/>
<path d="M20.8395 15.7727L15.4453 15.6595C15.4398 15.8441 15.4071 16.0218 15.3511 16.1888L20.8131 16.3035C20.8077 16.2461 20.805 16.1879 20.805 16.1291C20.805 16.0072 20.8169 15.888 20.8395 15.7727Z" fill="white"/>
<path d="M21.2036 17.2726L19.2697 19.3129C19.409 19.4237 19.5319 19.5544 19.634 19.7006L21.5905 17.6365C21.4446 17.5344 21.3143 17.4117 21.2036 17.2726Z" fill="white"/>
<path d="M23.4872 17.7636L24.7504 19.9486C24.8881 19.838 25.042 19.7468 25.2081 19.6792L23.9207 17.4523C23.7927 17.5759 23.6467 17.6811 23.4872 17.7636Z" fill="white"/>
<path d="M24.1106 20.9627L19.9638 20.7073C19.9642 20.7223 19.9644 20.7373 19.9644 20.7524C19.9644 20.9196 19.9421 21.0816 19.9003 21.2355L24.0655 21.4921C24.0634 21.456 24.0623 21.4196 24.0623 21.3829C24.0623 21.2383 24.079 21.0976 24.1106 20.9627Z" fill="white"/>
<path d="M24.1674 21.9971L17.0636 26.1289C17.2508 26.3327 17.3925 26.5789 17.4728 26.8514L24.6151 22.6972C24.4167 22.503 24.262 22.2642 24.1674 21.9971Z" fill="white"/>
<path d="M16.6543 25.7948C16.5035 25.7042 16.3386 25.6346 16.1637 25.5901L17.3433 22.417C17.5019 22.4917 17.673 22.5444 17.8526 22.5712L16.6543 25.7948Z" fill="white"/>
<path d="M16.2905 20.8705C16.302 21.0522 16.3399 21.2267 16.4003 21.3902L12.499 22.1505C12.5023 22.1052 12.504 22.0595 12.504 22.0134C12.504 21.8772 12.4892 21.7445 12.4611 21.6167L16.2905 20.8705Z" fill="white"/>
<path d="M17.1532 19.1915C17.0017 19.286 16.8649 19.402 16.7472 19.5352L14.5333 17.1927C14.688 17.1024 14.8283 16.9901 14.9499 16.8602L17.1532 19.1915Z" fill="white"/>
<path d="M12.7377 17.2243C12.8926 17.3076 13.0608 17.3694 13.2383 17.4055L11.8319 20.592C11.6943 20.4789 11.54 20.3854 11.3732 20.3158L12.7377 17.2243Z" fill="white"/>
<path d="M11.8493 15.0631C11.7981 15.2295 11.77 15.406 11.7685 15.5889L9.67541 15.3912C9.75757 15.231 9.81692 15.0572 9.84917 14.8741L11.8493 15.0631Z" fill="white"/>
<path d="M13.2834 13.7933C13.1038 13.8253 12.9332 13.8832 12.7757 13.9632L12.142 10.8102C12.3226 10.7891 12.4953 10.7418 12.656 10.6722L13.2834 13.7933Z" fill="white"/>
<path d="M14.9868 14.3879C14.8694 14.2548 14.733 14.1387 14.5818 14.0441L16.0898 12.1756C16.2152 12.301 16.3586 12.4083 16.5158 12.4935L14.9868 14.3879Z" fill="white"/>
<path d="M15.7635 10.0168C15.6814 10.172 15.6209 10.3404 15.5859 10.5179L13.612 9.71924C13.6825 9.55788 13.7305 9.38445 13.752 9.20291L15.7635 10.0168Z" fill="white"/>
<path d="M16.9034 9.10158C16.7294 9.14922 16.5656 9.22179 16.4163 9.31521L14.5443 5.60049C14.7172 5.54996 14.8796 5.4747 15.0274 5.3788L16.9034 9.10158Z" fill="white"/>
<path d="M18.6939 9.57871C18.5686 9.45274 18.4252 9.34482 18.2679 9.25919L19.7387 6.97589C19.879 7.08358 20.0352 7.17151 20.2033 7.2355L18.6939 9.57871Z" fill="white"/>
<path d="M19.0981 4.98032C19.0473 5.14726 19.0196 5.32427 19.0187 5.50762L15.6553 4.69156C15.7375 4.53562 15.798 4.36642 15.8326 4.18802L19.0981 4.98032Z" fill="white"/>
<path d="M13.1555 5.45451C13.3101 5.53798 13.4781 5.59995 13.6554 5.63639L12.8907 7.41818C12.7411 7.32579 12.5772 7.25425 12.4031 7.20762L13.1555 5.45451Z" fill="white"/>
<path d="M11.3661 7.23197L8.84193 3.42131C8.70994 3.5391 8.56086 3.63814 8.39886 3.71424L10.8852 7.46788C11.0316 7.36719 11.1933 7.28715 11.3661 7.23197Z" fill="white"/>
<path d="M10.0916 9.11123L8.31561 9.46353C8.36964 9.629 8.40082 9.80479 8.40545 9.98718L10.2041 9.63039C10.1428 9.46711 10.104 9.29279 10.0916 9.11123Z" fill="white"/>
<path d="M10.6956 10.3504L9.00088 12.9859C9.15398 13.0802 9.29222 13.1962 9.41127 13.3298L11.1373 10.6455C10.9757 10.5686 10.827 10.4689 10.6956 10.3504Z" fill="white"/>
<path d="M7.83256 12.7255L7.52954 11.6019C7.37827 11.695 7.21252 11.7668 7.03643 11.8131L7.31882 12.8602C7.47961 12.7918 7.65214 12.7456 7.83256 12.7255Z" fill="white"/>
<path d="M6.42446 13.6709L2.77488 12.1918C2.72835 12.366 2.65689 12.5299 2.56456 12.6797L6.2396 14.1691C6.27715 13.9923 6.3401 13.8249 6.42446 13.6709Z" fill="white"/>
<path d="M7.35676 16.2614L5.26808 21.257C5.43563 21.3257 5.59079 21.4185 5.72927 21.531L7.88073 16.3851C7.69705 16.3696 7.52106 16.327 7.35676 16.2614Z" fill="white"/>
<path d="M8.44187 16.3474L9.81611 20.3819C9.97161 20.3008 10.1402 20.2413 10.3178 20.2073L8.93814 16.157C8.78496 16.2431 8.6182 16.3079 8.44187 16.3474Z" fill="white"/>
<path d="M8.86515 22.3909L6.37687 22.6118C6.39836 22.7242 6.40962 22.8403 6.40962 22.959C6.40962 23.0211 6.40654 23.0824 6.40054 23.1429L9.05775 22.907C8.96915 22.748 8.90347 22.5745 8.86515 22.3909Z" fill="white"/>
<path d="M11.5851 23.6059L14.2487 26.2543C14.3569 26.1132 14.4852 25.9882 14.6292 25.8836L12.0042 23.2736C11.8818 23.4036 11.7406 23.5158 11.5851 23.6059Z" fill="white"/>
<path d="M14.1872 26.3394C14.0329 26.5664 13.928 26.8297 13.888 27.1138L6.00821 24.1059C6.18085 23.8898 6.30579 23.6339 6.36705 23.3542L14.1872 26.3394Z" fill="white"/>
<path d="M4.52778 21.1207C4.23771 21.1274 3.96424 21.2012 3.72231 21.3272L1.25505 13.537C1.53982 13.4972 1.80369 13.3921 2.03109 13.2375L4.52778 21.1207Z" fill="white"/>
<path d="M2.501 10.656C2.33813 10.4255 2.12358 10.2341 1.8742 10.0988L6.33313 3.36443C6.53149 3.5582 6.7735 3.70748 7.04303 3.79612L2.501 10.656Z" fill="white"/>
<path d="M2.83687 11.6904C2.83436 11.5061 2.80472 11.3282 2.75176 11.1608L4.79584 10.5299C4.84459 10.7047 4.91852 10.8689 5.01346 11.0186L2.83687 11.6904Z" fill="white"/>
<path d="M7.41452 8.40231C7.25451 8.31909 7.08073 8.25871 6.89749 8.22548L7.30265 3.86086C7.4051 3.87857 7.51047 3.8878 7.61799 3.8878C7.69133 3.8878 7.76366 3.8835 7.83476 3.87515L7.41452 8.40231Z" fill="white"/>
<path d="M34.3875 13.0294V5.28236H31.7917V3.6146H38.8931V5.28236H36.2973V13.0294H34.3875Z" fill="white"/>
<path d="M40.2698 13.0294V3.6146H42.1797V5.49756H45.7304L47.2099 6.97703V13.0294H45.3V7.11152H42.1797V13.0294H40.2698Z" fill="white"/>
<path d="M48.9196 11.6037V6.92323L50.3452 5.49756H55.6444V9.72076H50.8294V11.4154H55.3754V13.0294H50.3452L48.9196 11.6037ZM50.8294 8.67169L53.9766 8.53719V7.00392H50.8294V8.67169Z" fill="white"/>
<path d="M61.2208 11.5768V5.06717L62.6733 3.6146H67.4883V5.34961H63.1844V11.2944H67.6228V13.0294H62.6733L61.2208 11.5768Z" fill="white"/>
<path d="M68.9505 14.9123V13.2984H72.3532L72.7433 11.9534H70.4165L68.5201 5.49756H70.4568L71.8287 10.3932H73.1064L74.4245 5.49756H76.3478L73.6982 14.9123H68.9505Z" fill="white"/>
<path d="M77.5664 13.0294V3.6146H79.4763V5.49756H83.0674L84.6006 7.03082V11.4961L83.0674 13.0294H77.5664ZM79.4763 11.4154H82.6908V7.11152H79.4763V11.4154Z" fill="white"/>
<path d="M86.2162 11.6037V6.92323L87.6418 5.49756H92.941V9.72076H88.126V11.4154H92.672V13.0294H87.6418L86.2162 11.6037ZM88.126 8.67169L91.2733 8.53719V7.00392H88.126V8.67169Z" fill="white"/>
<path d="M94.647 13.0294V6.97703L96.1265 5.49756H100V7.21912H96.5569V13.0294H94.647Z" fill="white"/>
<path d="M32.1952 24.6062V18.0966L33.6478 16.644H38.4627V18.379H34.1588V24.3238H38.5972V26.0588H33.6478L32.1952 24.6062Z" fill="white"/>
<path d="M40.0728 26.0588V16.644H41.9827V18.5269H45.5334L47.0129 20.0064V26.0588H45.103V20.1409H41.9827V26.0588H40.0728Z" fill="white"/>
<path d="M48.6822 24.5793V21.7549L53.5779 21.6204V20.1409H48.9512V18.5269H54.0083L55.4877 20.0064V26.0588H50.1617L48.6822 24.5793ZM50.5921 22.9384V24.4986H53.5779V22.6695L50.5921 22.9384Z" fill="white"/>
<path d="M57.2847 18.5269H66.6995L68.2597 20.0871V26.0588H66.3767V20.114H63.7002V26.0588H61.8442V20.114H59.1677V26.0588H57.2847V18.5269Z" fill="white"/>
<path d="M70.0609 27.9417V18.5269H75.5618L77.0951 20.0602V24.5255L75.5618 26.0588H71.9708V27.9417H70.0609ZM75.1852 20.1409H71.9708V24.4448H75.1852V20.1409Z" fill="white"/>
<path d="M78.7106 26.0588V24.4986H83.5525V22.8443H78.7106V19.9526L80.1363 18.5269H85.4624V20.0871H80.6205V21.6607H85.4624V24.6735L84.077 26.0588H78.7106Z" fill="white"/>
</svg>
