<?xml version="1.0" ?><svg xmlns="http://www.w3.org/2000/svg" viewBox="0 0 32 32"><defs><style>.cls-1{fill:#f95631;}</style></defs><g id="_4" data-name="4"><path d="M21.34,10.5H25a1,1,0,0,0,0-2H18a1,1,0,0,0-1,1,.76.76,0,0,0,0,.16c0,.05,0,.09,0,.14v.7H15V9.8c0-.05,0-.09,0-.14a.76.76,0,0,0,0-.16,1,1,0,0,0-1-1H7a1,1,0,0,0,0,2h3.66A13.9,13.9,0,0,0,6,20.44a1,1,0,1,0,2,.12c.26-4.12,2.23-7.71,5-9.25v.19a1,1,0,0,0,1,1h4a1,1,0,0,0,1-1v-.19c2.74,1.54,4.71,5.13,5,9.25a1,1,0,0,0,1,.94H25A1,1,0,0,0,26,20.44,13.9,13.9,0,0,0,21.34,10.5Z"/><path class="cls-1" d="M7,25.5a3,3,0,1,1,3-3A3,3,0,0,1,7,25.5Zm0-4a1,1,0,1,0,1,1A1,1,0,0,0,7,21.5Z"/><path class="cls-1" d="M25,25.5a3,3,0,1,1,3-3A3,3,0,0,1,25,25.5Zm0-4a1,1,0,1,0,1,1A1,1,0,0,0,25,21.5Z"/><path class="cls-1" d="M18,12.5H14a1,1,0,0,1-1-1v-4a1,1,0,0,1,1-1h4a1,1,0,0,1,1,1v4A1,1,0,0,1,18,12.5Zm-3-2h2v-2H15Z"/><path class="cls-1" d="M7,12.5H3a1,1,0,0,1-1-1v-4a1,1,0,0,1,1-1H7a1,1,0,0,1,1,1v4A1,1,0,0,1,7,12.5Zm-3-2H6v-2H4Z"/><path class="cls-1" d="M29,12.5H25a1,1,0,0,1-1-1v-4a1,1,0,0,1,1-1h4a1,1,0,0,1,1,1v4A1,1,0,0,1,29,12.5Zm-3-2h2v-2H26Z"/></g></svg>