<svg width="173" height="172" viewBox="0 0 173 172" fill="none" xmlns="http://www.w3.org/2000/svg">
<path d="M52.9937 13.2756C52.9937 16.7575 50.1711 19.5801 46.6892 19.5801C43.2073 19.5801 40.3846 16.7575 40.3846 13.2756C40.3846 9.79368 43.2073 6.97105 46.6892 6.97105C50.1711 6.97105 52.9937 9.79368 52.9937 13.2756Z" fill="#4BB3FD"/>
<path d="M124.235 6.97105C124.235 10.4529 121.412 13.2756 117.93 13.2756C114.449 13.2756 111.626 10.4529 111.626 6.97105C111.626 3.48914 114.449 0.666504 117.93 0.666504C121.412 0.666504 124.235 3.48914 124.235 6.97105Z" fill="#4BB3FD"/>
<path d="M172.15 58.6683C172.15 62.1502 169.327 64.9728 165.845 64.9728C162.363 64.9728 159.54 62.1502 159.54 58.6683C159.54 55.1864 162.363 52.3637 165.845 52.3637C169.327 52.3637 172.15 55.1864 172.15 58.6683Z" fill="#4BB3FD"/>
<path d="M162.693 129.279C162.693 132.761 159.87 135.584 156.388 135.584C152.906 135.584 150.084 132.761 150.084 129.279C150.084 125.797 152.906 122.975 156.388 122.975C159.87 122.975 162.693 125.797 162.693 129.279Z" fill="#4BB3FD"/>
<path d="M101.539 165.215C101.539 168.697 98.716 171.52 95.2341 171.52C91.7522 171.52 88.9296 168.697 88.9296 165.215C88.9296 161.733 91.7522 158.91 95.2341 158.91C98.716 158.91 101.539 161.733 101.539 165.215Z" fill="#4BB3FD"/>
<path d="M34.7105 138.736C34.7105 142.218 31.8879 145.041 28.406 145.041C24.9241 145.041 22.1015 142.218 22.1015 138.736C22.1015 135.254 24.9241 132.431 28.406 132.431C31.8879 132.431 34.7105 135.254 34.7105 138.736Z" fill="#4BB3FD"/>
<path d="M13.2751 71.2774C13.2751 74.7593 10.4525 77.5819 6.97056 77.5819C3.48865 77.5819 0.666016 74.7593 0.666016 71.2774C0.666016 67.7955 3.48865 64.9728 6.97056 64.9728C10.4525 64.9728 13.2751 67.7955 13.2751 71.2774Z" fill="#4BB3FD"/>
<path d="M55.5155 88.2996C55.5155 91.7815 52.6929 94.6042 49.211 94.6042C45.7291 94.6042 42.9064 91.7815 42.9064 88.2996C42.9064 84.8177 45.7291 81.9951 49.211 81.9951C52.6929 81.9951 55.5155 84.8177 55.5155 88.2996Z" fill="#4BB3FD"/>
<path d="M78.8423 54.2551C78.8423 57.737 76.0197 60.5596 72.5378 60.5596C69.0559 60.5596 66.2332 57.737 66.2332 54.2551C66.2332 50.7732 69.0559 47.9506 72.5378 47.9506C76.0197 47.9506 78.8423 50.7732 78.8423 54.2551Z" fill="#4BB3FD"/>
<path d="M88.9296 94.6042C88.9296 98.0861 86.107 100.909 82.6251 100.909C79.1432 100.909 76.3205 98.0861 76.3205 94.6042C76.3205 91.1223 79.1432 88.2996 82.6251 88.2996C86.107 88.2996 88.9296 91.1223 88.9296 94.6042Z" fill="#4BB3FD"/>
<path d="M111.626 66.2337C111.626 69.7156 108.803 72.5383 105.321 72.5383C101.84 72.5383 99.0169 69.7156 99.0169 66.2337C99.0169 62.7518 101.84 59.9292 105.321 59.9292C108.803 59.9292 111.626 62.7518 111.626 66.2337Z" fill="#4BB3FD"/>
<path d="M145.04 61.1901C145.04 64.672 142.217 67.4946 138.735 67.4946C135.254 67.4946 132.431 64.672 132.431 61.1901C132.431 57.7082 135.254 54.8856 138.735 54.8856C142.217 54.8856 145.04 57.7082 145.04 61.1901Z" fill="#4BB3FD"/>
<path d="M132.431 34.0806C132.431 37.5625 129.608 40.3851 126.126 40.3851C122.644 40.3851 119.822 37.5625 119.822 34.0806C119.822 30.5987 122.644 27.776 126.126 27.776C129.608 27.776 132.431 30.5987 132.431 34.0806Z" fill="#4BB3FD"/>
<path d="M91.4514 23.9933C91.4514 27.4752 88.6288 30.2978 85.1469 30.2978C81.665 30.2978 78.8423 27.4752 78.8423 23.9933C78.8423 20.5114 81.665 17.6888 85.1469 17.6888C88.6288 17.6888 91.4514 20.5114 91.4514 23.9933Z" fill="#4BB3FD"/>
<path d="M46.6892 61.1901C46.6892 64.672 43.8665 67.4946 40.3846 67.4946C36.9027 67.4946 34.0801 64.672 34.0801 61.1901C34.0801 57.7082 36.9027 54.8856 40.3846 54.8856C43.8665 54.8856 46.6892 57.7082 46.6892 61.1901Z" fill="#4BB3FD"/>
<path d="M71.2769 134.323C71.2769 137.805 68.4542 140.627 64.9723 140.627C61.4904 140.627 58.6678 137.805 58.6678 134.323C58.6678 130.841 61.4904 128.018 64.9723 128.018C68.4542 128.018 71.2769 130.841 71.2769 134.323Z" fill="#4BB3FD"/>
<path d="M143.149 97.7564C143.149 101.238 140.326 104.061 136.844 104.061C133.362 104.061 130.54 101.238 130.54 97.7564C130.54 94.2745 133.362 91.4519 136.844 91.4519C140.326 91.4519 143.149 94.2745 143.149 97.7564Z" fill="#4BB3FD"/>
<path d="M116.039 125.496C116.039 128.978 113.216 131.801 109.735 131.801C106.253 131.801 103.43 128.978 103.43 125.496C103.43 122.015 106.253 119.192 109.735 119.192C113.216 119.192 116.039 122.015 116.039 125.496Z" fill="#4BB3FD"/>
<path d="M109.63 12.9173C108.117 11.029 107.213 8.63279 107.213 6.02533C107.213 5.86641 107.216 5.70827 107.223 5.55098L56.9076 9.66885C57.232 10.7084 57.4069 11.8139 57.4069 12.9603C57.4069 14.5589 57.0669 16.0781 56.4553 17.4495L73.8004 23.4829C73.8197 22.3715 74.0033 21.3002 74.3279 20.2922L57.9185 14.5842L107.387 10.5356L94.3686 18.1271C94.9055 19.0476 95.313 20.0529 95.566 21.118L109.63 12.9173Z" fill="#3E6680"/>
<path d="M119.012 17.0321L121.267 23.7087C122.224 23.2755 123.254 22.9749 124.333 22.8305L122.145 16.3495C121.16 16.7217 120.108 16.9569 119.012 17.0321Z" fill="#3E6680"/>
<path d="M122.576 16.1762L129.642 23.4157C132.737 24.5617 135.177 27.0559 136.25 30.1851L155.935 50.3512L135.865 38.316C135.421 39.295 134.838 40.1977 134.142 40.999L155.48 53.794C156.576 51.382 158.515 49.434 160.92 48.3263L126.629 13.1977C125.533 14.4783 124.148 15.5046 122.576 16.1762Z" fill="#3E6680"/>
<path d="M162.305 68.9072C163.325 69.2185 164.408 69.386 165.53 69.386C166.128 69.386 166.715 69.3384 167.287 69.2468L160.404 118.813C159.074 118.245 157.61 117.931 156.073 117.931C155.879 117.931 155.686 117.936 155.495 117.946L162.305 68.9072Z" fill="#3E6680"/>
<path d="M158.199 66.5984C158.994 67.3055 159.891 67.8994 160.866 68.3549L144.549 89.8645C143.818 89.091 142.976 88.4233 142.049 87.8865L158.199 66.5984Z" fill="#3E6680"/>
<path d="M154.498 58.1863C154.497 58.2418 154.497 58.2973 154.497 58.353C154.497 59.4021 154.643 60.4171 154.917 61.3784L149.445 61.3079C149.45 61.1642 149.453 61.0199 149.453 60.8748C149.453 59.9225 149.333 58.9983 149.106 58.1167L154.498 58.1863Z" fill="#3E6680"/>
<path d="M135.553 50.2181L131.967 42.9227C131.09 43.5131 130.124 43.9809 129.094 44.3017L132.625 51.4848C133.523 50.9291 134.507 50.4987 135.553 50.2181Z" fill="#3E6680"/>
<path d="M127.391 61.1503L115.732 63.3239C115.933 64.156 116.039 65.0248 116.039 65.9185C116.039 66.1173 116.034 66.315 116.023 66.5113L127.927 64.2921C127.604 63.2992 127.417 62.2445 127.391 61.1503Z" fill="#3E6680"/>
<path d="M136.119 71.6675L135.605 86.4464C135.909 86.4211 136.218 86.4082 136.529 86.4082C137.303 86.4082 138.058 86.4879 138.787 86.6395L139.301 71.8732C139.01 71.8961 138.717 71.9078 138.42 71.9078C137.631 71.9078 136.861 71.8249 136.119 71.6675Z" fill="#3E6680"/>
<path d="M130.027 88.5267L114.131 72.1223C113.528 73.0071 112.8 73.7996 111.972 74.4744L127.75 90.757C128.398 89.9085 129.165 89.1566 130.027 88.5267Z" fill="#3E6680"/>
<path d="M125.703 95.3029L93.3378 94.6237C93.3048 95.731 93.1086 96.7974 92.7725 97.7995L125.545 98.4873C125.512 98.1429 125.496 97.794 125.496 97.4412C125.496 96.7096 125.567 95.9947 125.703 95.3029Z" fill="#3E6680"/>
<path d="M127.888 104.302L116.284 116.544C117.12 117.209 117.857 117.993 118.47 118.87L130.209 106.486C129.334 105.873 128.552 105.137 127.888 104.302Z" fill="#3E6680"/>
<path d="M141.589 107.248L149.168 120.358C149.994 119.694 150.918 119.147 151.915 118.741L144.19 105.38C143.422 106.122 142.546 106.753 141.589 107.248Z" fill="#3E6680"/>
<path d="M145.329 126.443L120.449 124.91C120.451 125 120.452 125.091 120.452 125.181C120.452 126.184 120.318 127.156 120.068 128.08L145.059 129.619C145.046 129.402 145.04 129.184 145.04 128.964C145.04 128.096 145.14 127.252 145.329 126.443Z" fill="#3E6680"/>
<path d="M145.67 132.649L103.048 157.44C104.171 158.663 105.021 160.14 105.503 161.775L148.357 136.85C147.166 135.684 146.238 134.252 145.67 132.649Z" fill="#3E6680"/>
<path d="M100.592 155.435C99.6871 154.892 98.6978 154.474 97.6485 154.207L104.726 135.169C105.678 135.617 106.704 135.933 107.782 136.093L100.592 155.435Z" fill="#3E6680"/>
<path d="M98.4088 125.889C98.4778 126.979 98.7052 128.027 99.0681 129.008L75.6598 133.57C75.6799 133.298 75.69 133.023 75.69 132.747C75.69 131.93 75.6012 131.133 75.4328 130.367L98.4088 125.889Z" fill="#3E6680"/>
<path d="M103.585 115.815C102.676 116.383 101.856 117.079 101.149 117.878L87.866 103.823C88.794 103.281 89.6356 102.607 90.3654 101.828L103.585 115.815Z" fill="#3E6680"/>
<path d="M77.0922 104.013C78.0216 104.512 79.0309 104.883 80.0959 105.1L71.6573 124.218C70.8316 123.54 69.9057 122.979 68.9052 122.561L77.0922 104.013Z" fill="#3E6680"/>
<path d="M71.7615 91.0448C71.4547 92.0436 71.2859 93.1027 71.2772 94.2L58.7185 93.0134C59.2115 92.0525 59.5676 91.0098 59.7611 89.911L71.7615 91.0448Z" fill="#3E6680"/>
<path d="M80.3663 83.4266C79.2888 83.6181 78.2655 83.966 77.3205 84.4459L73.518 65.528C74.6019 65.4012 75.6377 65.1174 76.6022 64.6998L80.3663 83.4266Z" fill="#3E6680"/>
<path d="M90.5871 86.994C89.8824 86.195 89.0638 85.4989 88.1568 84.931L97.2049 73.7202C97.9572 74.4725 98.8177 75.1166 99.761 75.6273L90.5871 86.994Z" fill="#3E6680"/>
<path d="M95.247 60.7675C94.7544 61.6987 94.3913 62.7089 94.1814 63.7742L82.3381 58.982C82.761 58.0138 83.0489 56.9732 83.1781 55.884L95.247 60.7675Z" fill="#3E6680"/>
<path d="M102.086 55.276C101.042 55.5618 100.06 55.9972 99.1636 56.5578L87.9318 34.2695C88.9694 33.9663 89.9437 33.5147 90.8303 32.9393L102.086 55.276Z" fill="#3E6680"/>
<path d="M112.829 58.1387C112.078 57.3829 111.217 56.7354 110.273 56.2217L119.098 42.5218C119.94 43.168 120.877 43.6956 121.886 44.0795L112.829 58.1387Z" fill="#3E6680"/>
<path d="M115.255 30.5484C114.95 31.5501 114.784 32.6121 114.778 33.7122L94.5978 28.8159C95.091 27.8802 95.4538 26.8651 95.6618 25.7946L115.255 30.5484Z" fill="#3E6680"/>
<path d="M79.5989 33.3936C80.5268 33.8944 81.5347 34.2662 82.5984 34.4848L78.0104 45.1756C77.1125 44.6212 76.1292 44.192 75.0847 43.9122L79.5989 33.3936Z" fill="#3E6680"/>
<path d="M68.8625 44.0583L53.7176 21.1943C52.9257 21.9011 52.0312 22.4954 51.0592 22.9519L65.9774 45.4738C66.8557 44.8697 67.8258 44.3894 68.8625 44.0583Z" fill="#3E6680"/>
<path d="M61.2156 55.3339L50.5597 57.4477C50.8838 58.4405 51.071 59.4952 51.0987 60.5896L61.8906 58.4488C61.5227 57.4692 61.2901 56.4233 61.2156 55.3339Z" fill="#3E6680"/>
<path d="M64.8395 62.769L54.6713 78.5821C55.5899 79.1476 56.4193 79.8439 57.1336 80.6451L67.4899 64.5395C66.5201 64.0783 65.6283 63.4797 64.8395 62.769Z" fill="#3E6680"/>
<path d="M47.6614 77.0197L45.8432 70.2782C44.9357 70.8366 43.9411 71.2674 42.8846 71.5454L44.5789 77.8279C45.5437 77.4173 46.5789 77.1402 47.6614 77.0197Z" fill="#3E6680"/>
<path d="M39.2128 82.6918L17.3153 73.8173C17.0361 74.8622 16.6073 75.8461 16.0534 76.7445L38.1036 85.6809C38.3289 84.6202 38.7066 83.6158 39.2128 82.6918Z" fill="#3E6680"/>
<path d="M44.8066 98.2347L32.2745 128.209C33.2798 128.621 34.2108 129.177 35.0416 129.852L47.9504 98.9774C46.8483 98.8839 45.7924 98.6283 44.8066 98.2347Z" fill="#3E6680"/>
<path d="M51.3172 98.7508L59.5626 122.958C60.4957 122.471 61.5069 122.114 62.5726 121.91L54.2948 97.6083C53.3758 98.125 52.3752 98.5138 51.3172 98.7508Z" fill="#3E6680"/>
<path d="M53.8569 135.012L38.9272 136.337C39.0562 137.012 39.1237 137.708 39.1237 138.421C39.1237 138.793 39.1053 139.161 39.0692 139.524L55.0125 138.109C54.4809 137.155 54.0868 136.113 53.8569 135.012Z" fill="#3E6680"/>
<path d="M70.1765 142.302L86.1583 158.192C86.8077 157.345 87.577 156.595 88.441 155.968L72.6913 140.308C71.9568 141.088 71.1099 141.762 70.1765 142.302Z" fill="#3E6680"/>
<path d="M85.7894 158.703C84.8632 160.065 84.2338 161.645 83.994 163.35L36.7153 145.302C37.7511 144.005 38.5007 142.47 38.8683 140.792L85.7894 158.703Z" fill="#3E6680"/>
<path d="M27.8327 127.391C26.0923 127.431 24.4514 127.874 22.9999 128.63L8.19629 81.8883C9.90493 81.6495 11.4882 81.0194 12.8525 80.0914L27.8327 127.391Z" fill="#3E6680"/>
<path d="M15.672 64.6024C14.6948 63.2195 13.4075 62.0713 11.9112 61.2591L38.6648 20.8531C39.8549 22.0157 41.307 22.9114 42.9242 23.4432L15.672 64.6024Z" fill="#3E6680"/>
<path d="M17.6872 70.8089C17.6722 69.7028 17.4943 68.636 17.1766 67.6314L29.4411 63.8457C29.7336 64.8944 30.1771 65.8801 30.7468 66.7779L17.6872 70.8089Z" fill="#3E6680"/>
<path d="M45.1531 51.0804C44.1931 50.5811 43.1504 50.2187 42.051 50.0194L44.4819 23.8317C45.0966 23.9379 45.7288 23.9933 46.3739 23.9933C46.814 23.9933 47.248 23.9675 47.6746 23.9174L45.1531 51.0804Z" fill="#3E6680"/>
</svg>
