<svg width="35" height="36" viewBox="0 0 35 36" fill="none" xmlns="http://www.w3.org/2000/svg">
<circle cx="17.5" cy="18" r="17.5" fill="#286088"/>
<path d="M17.875 10.5C13.528 10.5 10 14.028 10 18.375C10 22.722 13.528 26.25 17.875 26.25H21.8125V24.675H17.875C14.4572 24.675 11.575 21.7928 11.575 18.375C11.575 14.9572 14.4572 12.075 17.875 12.075C21.2928 12.075 24.175 14.9572 24.175 18.375V19.5011C24.175 20.1233 23.6159 20.7375 22.9937 20.7375C22.3716 20.7375 21.8125 20.1233 21.8125 19.5011V18.375C21.8125 16.2015 20.0485 14.4375 17.875 14.4375C15.7015 14.4375 13.9375 16.2015 13.9375 18.375C13.9375 20.5485 15.7015 22.3125 17.875 22.3125C18.9618 22.3125 19.954 21.8715 20.6628 21.1549C21.1746 21.8557 22.0566 22.3125 22.9937 22.3125C24.5451 22.3125 25.75 21.0525 25.75 19.5011V18.375C25.75 14.028 22.222 10.5 17.875 10.5ZM17.875 20.7375C16.5677 20.7375 15.5125 19.6823 15.5125 18.375C15.5125 17.0677 16.5677 16.0125 17.875 16.0125C19.1823 16.0125 20.2375 17.0677 20.2375 18.375C20.2375 19.6823 19.1823 20.7375 17.875 20.7375Z" fill="white"/>
</svg>
