<svg width="35" height="36" viewBox="0 0 35 36" fill="none" xmlns="http://www.w3.org/2000/svg">
<circle cx="17.5" cy="18" r="17.5" fill="#286088"/>
<path d="M13.8611 9.5C11.1768 9.5 9 11.6768 9 14.3611V22.1389C9 24.8232 11.1768 27 13.8611 27H21.6389C24.3232 27 26.5 24.8232 26.5 22.1389V14.3611C26.5 11.6768 24.3232 9.5 21.6389 9.5H13.8611ZM23.5833 11.4444C24.12 11.4444 24.5556 11.88 24.5556 12.4167C24.5556 12.9533 24.12 13.3889 23.5833 13.3889C23.0467 13.3889 22.6111 12.9533 22.6111 12.4167C22.6111 11.88 23.0467 11.4444 23.5833 11.4444ZM17.75 13.3889C20.4343 13.3889 22.6111 15.5657 22.6111 18.25C22.6111 20.9343 20.4343 23.1111 17.75 23.1111C15.0657 23.1111 12.8889 20.9343 12.8889 18.25C12.8889 15.5657 15.0657 13.3889 17.75 13.3889ZM17.75 15.3333C16.9765 15.3333 16.2346 15.6406 15.6876 16.1876C15.1406 16.7346 14.8333 17.4765 14.8333 18.25C14.8333 19.0235 15.1406 19.7654 15.6876 20.3124C16.2346 20.8594 16.9765 21.1667 17.75 21.1667C18.5235 21.1667 19.2654 20.8594 19.8124 20.3124C20.3594 19.7654 20.6667 19.0235 20.6667 18.25C20.6667 17.4765 20.3594 16.7346 19.8124 16.1876C19.2654 15.6406 18.5235 15.3333 17.75 15.3333Z" fill="white"/>
</svg>
