<svg width="13" height="10" viewBox="0 0 13 10" fill="none" xmlns="http://www.w3.org/2000/svg">
<path d="M12.2712 1.49847C12.2712 1.30047 12.2302 1.1115 12.1602 0.9375L8.57617 4.60052L12.1772 8.34552C12.2342 8.18652 12.2712 8.01748 12.2712 7.83948V1.49847Z" fill="white"/>
<path d="M6.13419 5.52399L11.3992 0.141968C11.2072 0.0529678 10.9962 0 10.7712 0H1.49818C1.27218 0 1.06019 0.0540054 0.867188 0.143005L6.13419 5.52399Z" fill="white"/>
<path d="M7.80707 5.38867L6.13507 7.09766L4.46307 5.38971L0.830078 9.1767C1.03208 9.2787 1.25707 9.3407 1.49907 9.3407H10.7721C11.0161 9.3407 11.2431 9.27671 11.4461 9.17371L7.80707 5.38867Z" fill="white"/>
<path d="M0.110001 0.942383C0.0410006 1.11538 0 1.30233 0 1.49933V7.84137C0 8.02237 0.0370083 8.19233 0.0960083 8.35333L3.694 4.60333L0.110001 0.942383Z" fill="white"/>
</svg>
