<svg width="9" height="9" viewBox="0 0 9 9" fill="none" xmlns="http://www.w3.org/2000/svg">
<path d="M2.5 0C1.1195 0 0 1.1195 0 2.5V6.5C0 7.8805 1.1195 9 2.5 9H6.5C7.8805 9 9 7.8805 9 6.5V2.5C9 1.1195 7.8805 0 6.5 0H2.5ZM7.5 1C7.776 1 8 1.224 8 1.5C8 1.776 7.776 2 7.5 2C7.224 2 7 1.776 7 1.5C7 1.224 7.224 1 7.5 1ZM4.5 2C5.8805 2 7 3.1195 7 4.5C7 5.8805 5.8805 7 4.5 7C3.1195 7 2 5.8805 2 4.5C2 3.1195 3.1195 2 4.5 2ZM4.5 3C4.10218 3 3.72064 3.15804 3.43934 3.43934C3.15804 3.72064 3 4.10218 3 4.5C3 4.89782 3.15804 5.27936 3.43934 5.56066C3.72064 5.84196 4.10218 6 4.5 6C4.89782 6 5.27936 5.84196 5.56066 5.56066C5.84196 5.27936 6 4.89782 6 4.5C6 4.10218 5.84196 3.72064 5.56066 3.43934C5.27936 3.15804 4.89782 3 4.5 3Z" fill="white"/>
</svg>
