<svg width="9" height="10" viewBox="0 0 9 10" fill="none" xmlns="http://www.w3.org/2000/svg">
<path d="M4.70291 9.73606C4.00591 9.73606 3.33292 9.35501 2.99292 8.69401L0.883915 4.58604C0.650915 4.13104 0.607927 3.61203 0.764927 3.12303C0.921927 2.63503 1.25893 2.23703 1.71393 2.00303L2.05893 1.82603L2.05191 1.81101C1.89991 1.51301 2.01693 1.14805 2.31293 0.997049L3.35492 0.462015C3.49592 0.389015 3.65891 0.374013 3.81391 0.423013C3.96891 0.472013 4.09493 0.579039 4.16993 0.724039L5.02091 2.38304C5.09491 2.52504 5.10793 2.68906 5.05893 2.84306C5.00993 2.99806 4.90291 3.12302 4.75791 3.19602L3.71692 3.73203C3.42092 3.88303 3.05593 3.76601 2.90393 3.47001L2.89591 3.45506L2.55091 3.63206C2.50891 3.65306 2.49091 3.70706 2.51291 3.74906L4.62293 7.85703C4.64093 7.89403 4.70293 7.91406 4.73993 7.89506L5.08493 7.71806L5.07791 7.70207C4.92491 7.40407 5.04293 7.03904 5.33893 6.88804L6.38092 6.35404C6.52592 6.28104 6.68893 6.26806 6.84293 6.31706C6.99693 6.36606 7.12092 6.47304 7.19492 6.61704L8.04691 8.27506C8.19891 8.57106 8.08192 8.93603 7.78492 9.08903L6.74393 9.62406C6.44493 9.77306 6.0819 9.65804 5.9299 9.36204L5.92292 9.34605L5.57791 9.52403C5.29591 9.66803 4.99691 9.73606 4.70291 9.73606Z" fill="white"/>
</svg>
